<svg xmlns="http://www.w3.org/2000/svg" xmlns:xlink="http://www.w3.org/1999/xlink" width="500" zoomAndPan="magnify" viewBox="0 0 375 127.500001" height="170" preserveAspectRatio="xMidYMid meet" version="1.0"><defs><g/><clipPath id="id1"><path d="M 2.800781 0 L 108.660156 0 L 108.660156 126.632812 L 2.800781 126.632812 Z M 2.800781 0 " clip-rule="nonzero"/></clipPath><clipPath id="id2"><path d="M 21.855469 35.898438 L 34.558594 35.898438 C 35.726562 35.898438 36.675781 36.84375 36.675781 38.007812 C 36.675781 39.171875 35.726562 40.117188 34.558594 40.117188 L 30.324219 40.117188 L 30.324219 50.664062 C 30.324219 51.828125 29.375 52.773438 28.207031 52.773438 C 27.039062 52.773438 26.089844 51.828125 26.089844 50.664062 L 26.089844 40.117188 L 21.855469 40.117188 C 20.6875 40.117188 19.738281 39.171875 19.738281 38.007812 C 19.738281 36.84375 20.6875 35.898438 21.855469 35.898438 Z M 34.78125 49.71875 L 41.132812 37.066406 C 41.492188 36.351562 42.226562 35.898438 43.027344 35.898438 C 43.828125 35.898438 44.5625 36.351562 44.921875 37.066406 L 51.273438 49.71875 C 51.796875 50.761719 51.371094 52.027344 50.324219 52.546875 C 50.023438 52.699219 49.699219 52.773438 49.378906 52.773438 C 48.601562 52.773438 47.855469 52.34375 47.484375 51.605469 L 45.953125 48.554688 L 40.101562 48.554688 L 38.570312 51.605469 C 38.046875 52.648438 36.773438 53.070312 35.730469 52.550781 C 34.683594 52.027344 34.257812 50.761719 34.78125 49.71875 Z M 43.027344 42.722656 L 42.21875 44.335938 L 43.835938 44.335938 Z M 54.234375 52.152344 C 54.644531 52.566406 55.1875 52.773438 55.730469 52.773438 C 56.273438 52.773438 56.8125 52.566406 57.226562 52.152344 L 62.082031 47.316406 L 66.9375 52.152344 C 67.347656 52.566406 67.890625 52.773438 68.433594 52.773438 C 68.976562 52.773438 69.515625 52.566406 69.929688 52.152344 C 70.757812 51.332031 70.757812 49.996094 69.929688 49.171875 L 65.074219 44.335938 L 69.929688 39.5 C 70.757812 38.675781 70.757812 37.339844 69.929688 36.515625 C 69.101562 35.691406 67.761719 35.691406 66.9375 36.515625 L 62.082031 41.351562 L 57.226562 36.515625 C 56.398438 35.691406 55.058594 35.691406 54.234375 36.515625 C 53.40625 37.339844 53.40625 38.675781 54.234375 39.5 L 59.085938 44.335938 L 54.234375 49.171875 C 53.40625 49.996094 53.40625 51.332031 54.234375 52.152344 Z M 74.785156 40.117188 L 76.902344 40.117188 C 78.070312 40.117188 79.019531 39.171875 79.019531 38.007812 C 79.019531 36.84375 78.070312 35.898438 76.902344 35.898438 L 74.785156 35.898438 C 73.613281 35.898438 72.667969 36.84375 72.667969 38.007812 C 72.667969 39.171875 73.613281 40.117188 74.785156 40.117188 Z M 74.785156 46.445312 L 76.902344 46.445312 C 78.070312 46.445312 79.019531 45.5 79.019531 44.335938 C 79.019531 43.171875 78.070312 42.226562 76.902344 42.226562 L 74.785156 42.226562 C 73.613281 42.226562 72.667969 43.171875 72.667969 44.335938 C 72.667969 45.5 73.613281 46.445312 74.785156 46.445312 Z M 74.785156 52.773438 L 76.902344 52.773438 C 78.070312 52.773438 79.019531 51.828125 79.019531 50.664062 C 79.019531 49.496094 78.070312 48.554688 76.902344 48.554688 L 74.785156 48.554688 C 73.613281 48.554688 72.667969 49.496094 72.667969 50.664062 C 72.667969 51.828125 73.613281 52.773438 74.785156 52.773438 Z M 76.902344 56.988281 L 40.910156 56.988281 C 39.742188 56.988281 38.792969 57.933594 38.792969 59.097656 C 38.792969 60.261719 39.742188 61.207031 40.910156 61.207031 L 76.902344 61.207031 C 78.070312 61.207031 79.019531 60.261719 79.019531 59.097656 C 79.019531 57.933594 78.070312 56.988281 76.902344 56.988281 Z M 76.902344 65.425781 L 49.378906 65.425781 C 48.210938 65.425781 47.261719 66.371094 47.261719 67.535156 C 47.261719 68.699219 48.210938 69.644531 49.378906 69.644531 L 76.902344 69.644531 C 78.070312 69.644531 79.019531 68.699219 79.019531 67.535156 C 79.019531 66.371094 78.070312 65.425781 76.902344 65.425781 Z M 76.902344 73.863281 L 49.378906 73.863281 C 48.210938 73.863281 47.261719 74.804688 47.261719 75.972656 C 47.261719 77.136719 48.210938 78.082031 49.378906 78.082031 L 76.902344 78.082031 C 78.070312 78.082031 79.019531 77.136719 79.019531 75.972656 C 79.019531 74.804688 78.070312 73.863281 76.902344 73.863281 Z M 76.902344 82.296875 L 47.261719 82.296875 C 46.09375 82.296875 45.144531 83.242188 45.144531 84.40625 C 45.144531 85.574219 46.09375 86.515625 47.261719 86.515625 L 76.902344 86.515625 C 78.070312 86.515625 79.019531 85.574219 79.019531 84.40625 C 79.019531 83.242188 78.070312 82.296875 76.902344 82.296875 Z M 68.433594 90.734375 L 21.855469 90.734375 C 20.6875 90.734375 19.738281 91.679688 19.738281 92.84375 C 19.738281 94.007812 20.6875 94.953125 21.855469 94.953125 L 68.433594 94.953125 C 69.601562 94.953125 70.550781 94.007812 70.550781 92.84375 C 70.550781 91.679688 69.601562 90.734375 68.433594 90.734375 Z M 92.722656 126.332031 C 92.234375 126.5 91.71875 126.589844 91.191406 126.589844 L 7.566406 126.589844 C 4.9375 126.589844 2.800781 124.460938 2.800781 121.84375 L 2.800781 17.445312 C 2.800781 14.828125 4.9375 12.699219 7.566406 12.699219 L 24.386719 12.699219 C 25.3125 10.238281 27.699219 8.480469 30.488281 8.480469 L 34.558594 8.480469 L 34.558594 7.261719 C 34.558594 3.28125 37.808594 0.0429688 41.804688 0.0429688 L 56.953125 0.0429688 C 60.949219 0.0429688 64.199219 3.28125 64.199219 7.261719 L 64.199219 8.480469 L 68.265625 8.480469 C 71.058594 8.480469 73.445312 10.238281 74.371094 12.699219 L 91.191406 12.699219 C 93.820312 12.699219 95.957031 14.828125 95.957031 17.445312 L 95.957031 89.714844 C 103.347656 92.324219 108.660156 99.359375 108.660156 107.605469 C 108.660156 117.015625 101.75 124.84375 92.722656 126.332031 Z M 91.191406 16.917969 L 74.785156 16.917969 L 74.785156 19.027344 L 85.371094 19.027344 C 86.539062 19.027344 87.488281 19.96875 87.488281 21.136719 L 87.488281 88.746094 C 88.183594 88.667969 88.886719 88.625 89.605469 88.625 C 90.320312 88.625 91.027344 88.667969 91.722656 88.746094 L 91.722656 17.445312 C 91.722656 17.152344 91.484375 16.917969 91.191406 16.917969 Z M 23.972656 23.601562 L 23.972656 23.246094 L 15.503906 23.246094 L 15.503906 116.042969 L 72.542969 116.042969 C 71.269531 113.5 70.550781 110.636719 70.550781 107.605469 C 70.550781 99.359375 75.859375 92.324219 83.253906 89.714844 L 83.253906 23.246094 L 74.785156 23.246094 L 74.785156 23.601562 C 74.785156 26.894531 72.09375 29.570312 68.789062 29.570312 L 29.964844 29.570312 C 26.660156 29.570312 23.972656 26.894531 23.972656 23.601562 Z M 28.207031 23.601562 C 28.207031 24.566406 28.996094 25.355469 29.964844 25.355469 L 68.789062 25.355469 C 69.761719 25.355469 70.550781 24.566406 70.550781 23.601562 L 70.550781 14.972656 C 70.550781 13.71875 69.527344 12.699219 68.265625 12.699219 L 62.082031 12.699219 C 60.914062 12.699219 59.964844 11.753906 59.964844 10.589844 L 59.964844 7.261719 C 59.964844 5.609375 58.613281 4.261719 56.953125 4.261719 L 41.804688 4.261719 C 40.144531 4.261719 38.792969 5.609375 38.792969 7.261719 L 38.792969 10.589844 C 38.792969 11.753906 37.84375 12.699219 36.675781 12.699219 L 30.492188 12.699219 C 29.230469 12.699219 28.207031 13.71875 28.207031 14.972656 Z M 77.648438 122.371094 C 76.847656 121.726562 76.101562 121.023438 75.417969 120.261719 L 13.386719 120.261719 C 12.21875 120.261719 11.269531 119.316406 11.269531 118.152344 L 11.269531 21.136719 C 11.269531 19.96875 12.21875 19.027344 13.386719 19.027344 L 23.972656 19.027344 L 23.972656 16.917969 L 7.566406 16.917969 C 7.273438 16.917969 7.035156 17.152344 7.035156 17.445312 L 7.035156 121.84375 C 7.035156 122.132812 7.273438 122.371094 7.566406 122.371094 Z M 104.425781 107.605469 C 104.425781 99.46875 97.777344 92.84375 89.605469 92.84375 C 81.433594 92.84375 74.785156 99.46875 74.785156 107.605469 C 74.785156 115.746094 81.433594 122.371094 89.605469 122.371094 C 97.777344 122.371094 104.425781 115.746094 104.425781 107.605469 Z M 34.558594 107.605469 L 21.855469 107.605469 C 20.6875 107.605469 19.738281 108.550781 19.738281 109.714844 C 19.738281 110.882812 20.6875 111.824219 21.855469 111.824219 L 34.558594 111.824219 C 35.726562 111.824219 36.675781 110.882812 36.675781 109.714844 C 36.675781 108.550781 35.726562 107.605469 34.558594 107.605469 Z M 55.730469 107.605469 L 43.027344 107.605469 C 41.859375 107.605469 40.910156 108.550781 40.910156 109.714844 C 40.910156 110.882812 41.859375 111.824219 43.027344 111.824219 L 55.730469 111.824219 C 56.898438 111.824219 57.847656 110.882812 57.847656 109.714844 C 57.847656 108.550781 56.898438 107.605469 55.730469 107.605469 Z M 95.515625 100.84375 L 85.371094 110.953125 L 82.632812 108.226562 C 81.804688 107.402344 80.464844 107.402344 79.640625 108.226562 C 78.8125 109.046875 78.8125 110.382812 79.640625 111.207031 L 83.875 115.425781 C 84.285156 115.835938 84.828125 116.042969 85.371094 116.042969 C 85.914062 116.042969 86.453125 115.835938 86.867188 115.425781 L 98.511719 103.824219 C 99.339844 103.003906 99.339844 101.667969 98.511719 100.84375 C 97.683594 100.019531 96.34375 100.019531 95.515625 100.84375 Z M 19.738281 73.863281 C 19.738281 66.882812 25.4375 61.207031 32.441406 61.207031 C 39.445312 61.207031 45.144531 66.882812 45.144531 73.863281 C 45.144531 80.839844 39.445312 86.515625 32.441406 86.515625 C 25.4375 86.515625 19.738281 80.839844 19.738281 73.863281 Z M 23.972656 73.863281 C 23.972656 78.515625 27.773438 82.296875 32.441406 82.296875 C 37.109375 82.296875 40.910156 78.515625 40.910156 73.863281 C 40.910156 69.210938 37.109375 65.425781 32.441406 65.425781 C 27.773438 65.425781 23.972656 69.210938 23.972656 73.863281 Z M 28.207031 80.1875 C 28.75 80.1875 29.289062 79.984375 29.703125 79.570312 L 38.171875 71.136719 C 39 70.3125 39 68.976562 38.171875 68.152344 C 37.34375 67.328125 36.003906 67.328125 35.179688 68.152344 L 26.710938 76.589844 C 25.882812 77.414062 25.882812 78.75 26.710938 79.570312 C 27.125 79.984375 27.664062 80.1875 28.207031 80.1875 Z M 28.210938 71.753906 C 29.382812 71.753906 30.328125 70.808594 30.328125 69.644531 C 30.328125 68.480469 29.382812 67.535156 28.210938 67.535156 C 27.039062 67.535156 26.09375 68.480469 26.09375 69.644531 C 26.09375 70.808594 27.042969 71.753906 28.210938 71.753906 Z M 36.679688 75.972656 C 35.507812 75.972656 34.5625 76.914062 34.5625 78.082031 C 34.5625 79.246094 35.511719 80.1875 36.679688 80.1875 C 37.851562 80.1875 38.796875 79.246094 38.796875 78.082031 C 38.796875 76.914062 37.851562 75.972656 36.679688 75.972656 Z M 64.199219 99.171875 L 21.855469 99.171875 C 20.6875 99.171875 19.738281 100.117188 19.738281 101.28125 C 19.738281 102.445312 20.6875 103.390625 21.855469 103.390625 L 64.199219 103.390625 C 65.367188 103.390625 66.316406 102.445312 66.316406 101.28125 C 66.316406 100.117188 65.367188 99.171875 64.199219 99.171875 Z M 64.199219 99.171875 " clip-rule="nonzero"/></clipPath><linearGradient x1="64.08" gradientTransform="matrix(0.264645, 0, 0, 0.263634, -18.37049, -4.173433)" y1="480.080002" x2="504.079989" gradientUnits="userSpaceOnUse" y2="40.080013" id="id3"><stop stop-opacity="1" stop-color="rgb(36.898804%, 73.699951%, 89.7995%)" offset="0"/><stop stop-opacity="1" stop-color="rgb(36.898804%, 73.699951%, 89.7995%)" offset="0.0078125"/><stop stop-opacity="1" stop-color="rgb(38.574219%, 72.451782%, 89.801025%)" offset="0.0117188"/><stop stop-opacity="1" stop-color="rgb(40.25116%, 71.203613%, 89.802551%)" offset="0.015625"/><stop stop-opacity="1" stop-color="rgb(40.522766%, 70.993042%, 89.805603%)" offset="0.0195312"/><stop stop-opacity="1" stop-color="rgb(40.795898%, 70.782471%, 89.808655%)" offset="0.0234375"/><stop stop-opacity="1" stop-color="rgb(41.067505%, 70.571899%, 89.811707%)" offset="0.0273437"/><stop stop-opacity="1" stop-color="rgb(41.339111%, 70.361328%, 89.816284%)" offset="0.03125"/><stop stop-opacity="1" stop-color="rgb(41.610718%, 70.150757%, 89.819336%)" offset="0.0351562"/><stop stop-opacity="1" stop-color="rgb(41.88385%, 69.940186%, 89.823914%)" offset="0.0390625"/><stop stop-opacity="1" stop-color="rgb(42.155457%, 69.729614%, 89.826965%)" offset="0.0429687"/><stop stop-opacity="1" stop-color="rgb(42.428589%, 69.519043%, 89.830017%)" offset="0.046875"/><stop stop-opacity="1" stop-color="rgb(42.700195%, 69.308472%, 89.833069%)" offset="0.0507812"/><stop stop-opacity="1" stop-color="rgb(42.971802%, 69.0979%, 89.837646%)" offset="0.0546875"/><stop stop-opacity="1" stop-color="rgb(43.243408%, 68.887329%, 89.840698%)" offset="0.0585937"/><stop stop-opacity="1" stop-color="rgb(43.516541%, 68.676758%, 89.84375%)" offset="0.0625"/><stop stop-opacity="1" stop-color="rgb(43.788147%, 68.466187%, 89.846802%)" offset="0.0664062"/><stop stop-opacity="1" stop-color="rgb(44.061279%, 68.255615%, 89.851379%)" offset="0.0703125"/><stop stop-opacity="1" stop-color="rgb(44.332886%, 68.045044%, 89.854431%)" offset="0.0742187"/><stop stop-opacity="1" stop-color="rgb(44.604492%, 67.834473%, 89.857483%)" offset="0.078125"/><stop stop-opacity="1" stop-color="rgb(44.876099%, 67.623901%, 89.860535%)" offset="0.0820312"/><stop stop-opacity="1" stop-color="rgb(45.149231%, 67.41333%, 89.865112%)" offset="0.0859375"/><stop stop-opacity="1" stop-color="rgb(45.420837%, 67.202759%, 89.868164%)" offset="0.0898437"/><stop stop-opacity="1" stop-color="rgb(45.69397%, 66.992188%, 89.871216%)" offset="0.09375"/><stop stop-opacity="1" stop-color="rgb(45.965576%, 66.781616%, 89.874268%)" offset="0.0976562"/><stop stop-opacity="1" stop-color="rgb(46.237183%, 66.571045%, 89.878845%)" offset="0.101562"/><stop stop-opacity="1" stop-color="rgb(46.508789%, 66.360474%, 89.881897%)" offset="0.105469"/><stop stop-opacity="1" stop-color="rgb(46.781921%, 66.149902%, 89.884949%)" offset="0.109375"/><stop stop-opacity="1" stop-color="rgb(47.053528%, 65.939331%, 89.888%)" offset="0.113281"/><stop stop-opacity="1" stop-color="rgb(47.325134%, 65.72876%, 89.892578%)" offset="0.117187"/><stop stop-opacity="1" stop-color="rgb(47.596741%, 65.518188%, 89.89563%)" offset="0.121094"/><stop stop-opacity="1" stop-color="rgb(47.869873%, 65.307617%, 89.900208%)" offset="0.125"/><stop stop-opacity="1" stop-color="rgb(48.141479%, 65.097046%, 89.903259%)" offset="0.128906"/><stop stop-opacity="1" stop-color="rgb(48.414612%, 64.886475%, 89.906311%)" offset="0.132812"/><stop stop-opacity="1" stop-color="rgb(48.686218%, 64.675903%, 89.909363%)" offset="0.136719"/><stop stop-opacity="1" stop-color="rgb(48.957825%, 64.465332%, 89.91394%)" offset="0.140625"/><stop stop-opacity="1" stop-color="rgb(49.229431%, 64.254761%, 89.916992%)" offset="0.144531"/><stop stop-opacity="1" stop-color="rgb(49.502563%, 64.044189%, 89.920044%)" offset="0.148437"/><stop stop-opacity="1" stop-color="rgb(49.77417%, 63.833618%, 89.923096%)" offset="0.152344"/><stop stop-opacity="1" stop-color="rgb(50.047302%, 63.623047%, 89.927673%)" offset="0.15625"/><stop stop-opacity="1" stop-color="rgb(50.318909%, 63.412476%, 89.930725%)" offset="0.160156"/><stop stop-opacity="1" stop-color="rgb(50.590515%, 63.201904%, 89.933777%)" offset="0.164062"/><stop stop-opacity="1" stop-color="rgb(50.862122%, 62.991333%, 89.936829%)" offset="0.167969"/><stop stop-opacity="1" stop-color="rgb(51.135254%, 62.780762%, 89.941406%)" offset="0.171875"/><stop stop-opacity="1" stop-color="rgb(51.40686%, 62.57019%, 89.944458%)" offset="0.175781"/><stop stop-opacity="1" stop-color="rgb(51.679993%, 62.359619%, 89.94751%)" offset="0.179687"/><stop stop-opacity="1" stop-color="rgb(51.951599%, 62.149048%, 89.950562%)" offset="0.183594"/><stop stop-opacity="1" stop-color="rgb(52.223206%, 61.938477%, 89.955139%)" offset="0.1875"/><stop stop-opacity="1" stop-color="rgb(52.494812%, 61.727905%, 89.958191%)" offset="0.191406"/><stop stop-opacity="1" stop-color="rgb(52.767944%, 61.517334%, 89.961243%)" offset="0.195312"/><stop stop-opacity="1" stop-color="rgb(53.039551%, 61.306763%, 89.964294%)" offset="0.199219"/><stop stop-opacity="1" stop-color="rgb(53.311157%, 61.096191%, 89.968872%)" offset="0.203125"/><stop stop-opacity="1" stop-color="rgb(53.582764%, 60.88562%, 89.971924%)" offset="0.207031"/><stop stop-opacity="1" stop-color="rgb(53.855896%, 60.675049%, 89.976501%)" offset="0.210937"/><stop stop-opacity="1" stop-color="rgb(54.127502%, 60.464478%, 89.979553%)" offset="0.214844"/><stop stop-opacity="1" stop-color="rgb(54.400635%, 60.253906%, 89.982605%)" offset="0.21875"/><stop stop-opacity="1" stop-color="rgb(54.672241%, 60.043335%, 89.985657%)" offset="0.222656"/><stop stop-opacity="1" stop-color="rgb(54.943848%, 59.832764%, 89.990234%)" offset="0.226562"/><stop stop-opacity="1" stop-color="rgb(55.215454%, 59.622192%, 89.993286%)" offset="0.230469"/><stop stop-opacity="1" stop-color="rgb(55.488586%, 59.411621%, 89.996338%)" offset="0.234375"/><stop stop-opacity="1" stop-color="rgb(55.760193%, 59.20105%, 89.99939%)" offset="0.238281"/><stop stop-opacity="1" stop-color="rgb(56.033325%, 58.990479%, 90.003967%)" offset="0.242187"/><stop stop-opacity="1" stop-color="rgb(56.304932%, 58.779907%, 90.007019%)" offset="0.246094"/><stop stop-opacity="1" stop-color="rgb(56.576538%, 58.569336%, 90.010071%)" offset="0.25"/><stop stop-opacity="1" stop-color="rgb(56.848145%, 58.358765%, 90.013123%)" offset="0.253906"/><stop stop-opacity="1" stop-color="rgb(57.121277%, 58.148193%, 90.0177%)" offset="0.257813"/><stop stop-opacity="1" stop-color="rgb(57.392883%, 57.937622%, 90.020752%)" offset="0.261719"/><stop stop-opacity="1" stop-color="rgb(57.666016%, 57.727051%, 90.023804%)" offset="0.265625"/><stop stop-opacity="1" stop-color="rgb(57.937622%, 57.516479%, 90.026855%)" offset="0.269531"/><stop stop-opacity="1" stop-color="rgb(58.209229%, 57.305908%, 90.031433%)" offset="0.273438"/><stop stop-opacity="1" stop-color="rgb(58.480835%, 57.095337%, 90.034485%)" offset="0.277344"/><stop stop-opacity="1" stop-color="rgb(58.753967%, 56.884766%, 90.037537%)" offset="0.28125"/><stop stop-opacity="1" stop-color="rgb(59.025574%, 56.674194%, 90.040588%)" offset="0.285156"/><stop stop-opacity="1" stop-color="rgb(59.29718%, 56.463623%, 90.045166%)" offset="0.289062"/><stop stop-opacity="1" stop-color="rgb(59.568787%, 56.253052%, 90.048218%)" offset="0.292969"/><stop stop-opacity="1" stop-color="rgb(59.841919%, 56.04248%, 90.05127%)" offset="0.296875"/><stop stop-opacity="1" stop-color="rgb(60.113525%, 55.831909%, 90.054321%)" offset="0.300781"/><stop stop-opacity="1" stop-color="rgb(60.386658%, 55.621338%, 90.058899%)" offset="0.304688"/><stop stop-opacity="1" stop-color="rgb(60.658264%, 55.410767%, 90.061951%)" offset="0.308594"/><stop stop-opacity="1" stop-color="rgb(60.929871%, 55.200195%, 90.066528%)" offset="0.3125"/><stop stop-opacity="1" stop-color="rgb(61.201477%, 54.989624%, 90.06958%)" offset="0.316406"/><stop stop-opacity="1" stop-color="rgb(61.474609%, 54.779053%, 90.072632%)" offset="0.320312"/><stop stop-opacity="1" stop-color="rgb(61.746216%, 54.568481%, 90.075684%)" offset="0.324219"/><stop stop-opacity="1" stop-color="rgb(62.019348%, 54.35791%, 90.080261%)" offset="0.328125"/><stop stop-opacity="1" stop-color="rgb(62.290955%, 54.147339%, 90.083313%)" offset="0.332031"/><stop stop-opacity="1" stop-color="rgb(62.562561%, 53.936768%, 90.086365%)" offset="0.335938"/><stop stop-opacity="1" stop-color="rgb(62.834167%, 53.726196%, 90.089417%)" offset="0.339844"/><stop stop-opacity="1" stop-color="rgb(63.1073%, 53.515625%, 90.093994%)" offset="0.34375"/><stop stop-opacity="1" stop-color="rgb(63.378906%, 53.305054%, 90.097046%)" offset="0.347656"/><stop stop-opacity="1" stop-color="rgb(63.652039%, 53.094482%, 90.100098%)" offset="0.351562"/><stop stop-opacity="1" stop-color="rgb(63.923645%, 52.883911%, 90.103149%)" offset="0.355469"/><stop stop-opacity="1" stop-color="rgb(64.195251%, 52.67334%, 90.107727%)" offset="0.359375"/><stop stop-opacity="1" stop-color="rgb(64.466858%, 52.462769%, 90.110779%)" offset="0.363281"/><stop stop-opacity="1" stop-color="rgb(64.73999%, 52.252197%, 90.113831%)" offset="0.367187"/><stop stop-opacity="1" stop-color="rgb(65.011597%, 52.041626%, 90.116882%)" offset="0.371094"/><stop stop-opacity="1" stop-color="rgb(65.283203%, 51.831055%, 90.12146%)" offset="0.375"/><stop stop-opacity="1" stop-color="rgb(65.55481%, 51.620483%, 90.124512%)" offset="0.378906"/><stop stop-opacity="1" stop-color="rgb(65.827942%, 51.409912%, 90.127563%)" offset="0.382812"/><stop stop-opacity="1" stop-color="rgb(66.099548%, 51.199341%, 90.130615%)" offset="0.386719"/><stop stop-opacity="1" stop-color="rgb(66.372681%, 50.98877%, 90.135193%)" offset="0.390625"/><stop stop-opacity="1" stop-color="rgb(66.644287%, 50.778198%, 90.138245%)" offset="0.394531"/><stop stop-opacity="1" stop-color="rgb(66.915894%, 50.567627%, 90.142822%)" offset="0.398437"/><stop stop-opacity="1" stop-color="rgb(67.1875%, 50.357056%, 90.145874%)" offset="0.402344"/><stop stop-opacity="1" stop-color="rgb(67.460632%, 50.146484%, 90.148926%)" offset="0.40625"/><stop stop-opacity="1" stop-color="rgb(67.732239%, 49.935913%, 90.151978%)" offset="0.410156"/><stop stop-opacity="1" stop-color="rgb(68.005371%, 49.725342%, 90.156555%)" offset="0.414062"/><stop stop-opacity="1" stop-color="rgb(68.276978%, 49.514771%, 90.159607%)" offset="0.417969"/><stop stop-opacity="1" stop-color="rgb(68.548584%, 49.304199%, 90.162659%)" offset="0.421875"/><stop stop-opacity="1" stop-color="rgb(68.82019%, 49.093628%, 90.16571%)" offset="0.425781"/><stop stop-opacity="1" stop-color="rgb(69.093323%, 48.883057%, 90.170288%)" offset="0.429688"/><stop stop-opacity="1" stop-color="rgb(69.364929%, 48.672485%, 90.17334%)" offset="0.433594"/><stop stop-opacity="1" stop-color="rgb(69.638062%, 48.461914%, 90.176392%)" offset="0.4375"/><stop stop-opacity="1" stop-color="rgb(69.909668%, 48.251343%, 90.179443%)" offset="0.441406"/><stop stop-opacity="1" stop-color="rgb(70.181274%, 48.040771%, 90.184021%)" offset="0.445312"/><stop stop-opacity="1" stop-color="rgb(70.452881%, 47.8302%, 90.187073%)" offset="0.449219"/><stop stop-opacity="1" stop-color="rgb(70.726013%, 47.619629%, 90.190125%)" offset="0.453125"/><stop stop-opacity="1" stop-color="rgb(70.99762%, 47.409058%, 90.193176%)" offset="0.457031"/><stop stop-opacity="1" stop-color="rgb(71.270752%, 47.200012%, 90.197754%)" offset="0.460937"/><stop stop-opacity="1" stop-color="rgb(71.458435%, 47.067261%, 89.823914%)" offset="0.464844"/><stop stop-opacity="1" stop-color="rgb(71.646118%, 46.936035%, 89.451599%)" offset="0.46875"/><stop stop-opacity="1" stop-color="rgb(71.806335%, 46.829224%, 88.961792%)" offset="0.472656"/><stop stop-opacity="1" stop-color="rgb(71.968079%, 46.722412%, 88.471985%)" offset="0.476562"/><stop stop-opacity="1" stop-color="rgb(72.129822%, 46.614075%, 87.982178%)" offset="0.480469"/><stop stop-opacity="1" stop-color="rgb(72.291565%, 46.507263%, 87.492371%)" offset="0.484375"/><stop stop-opacity="1" stop-color="rgb(72.451782%, 46.400452%, 87.001038%)" offset="0.488281"/><stop stop-opacity="1" stop-color="rgb(72.613525%, 46.29364%, 86.51123%)" offset="0.492187"/><stop stop-opacity="1" stop-color="rgb(72.775269%, 46.186829%, 86.021423%)" offset="0.496094"/><stop stop-opacity="1" stop-color="rgb(72.937012%, 46.080017%, 85.531616%)" offset="0.5"/><stop stop-opacity="1" stop-color="rgb(73.098755%, 45.973206%, 85.041809%)" offset="0.503906"/><stop stop-opacity="1" stop-color="rgb(73.260498%, 45.866394%, 84.552002%)" offset="0.507812"/><stop stop-opacity="1" stop-color="rgb(73.420715%, 45.758057%, 84.062195%)" offset="0.511719"/><stop stop-opacity="1" stop-color="rgb(73.582458%, 45.651245%, 83.572388%)" offset="0.515625"/><stop stop-opacity="1" stop-color="rgb(73.744202%, 45.544434%, 83.081055%)" offset="0.519531"/><stop stop-opacity="1" stop-color="rgb(73.905945%, 45.437622%, 82.591248%)" offset="0.523437"/><stop stop-opacity="1" stop-color="rgb(74.067688%, 45.330811%, 82.10144%)" offset="0.527344"/><stop stop-opacity="1" stop-color="rgb(74.229431%, 45.223999%, 81.611633%)" offset="0.53125"/><stop stop-opacity="1" stop-color="rgb(74.389648%, 45.117188%, 81.121826%)" offset="0.535156"/><stop stop-opacity="1" stop-color="rgb(74.551392%, 45.010376%, 80.632019%)" offset="0.539062"/><stop stop-opacity="1" stop-color="rgb(74.713135%, 44.902039%, 80.140686%)" offset="0.542969"/><stop stop-opacity="1" stop-color="rgb(74.874878%, 44.795227%, 79.650879%)" offset="0.546875"/><stop stop-opacity="1" stop-color="rgb(75.036621%, 44.688416%, 79.161072%)" offset="0.550781"/><stop stop-opacity="1" stop-color="rgb(75.198364%, 44.581604%, 78.671265%)" offset="0.554687"/><stop stop-opacity="1" stop-color="rgb(75.358582%, 44.474792%, 78.181458%)" offset="0.558594"/><stop stop-opacity="1" stop-color="rgb(75.520325%, 44.367981%, 77.69165%)" offset="0.5625"/><stop stop-opacity="1" stop-color="rgb(75.682068%, 44.261169%, 77.201843%)" offset="0.566406"/><stop stop-opacity="1" stop-color="rgb(75.843811%, 44.154358%, 76.712036%)" offset="0.570312"/><stop stop-opacity="1" stop-color="rgb(76.004028%, 44.046021%, 76.220703%)" offset="0.574219"/><stop stop-opacity="1" stop-color="rgb(76.165771%, 43.939209%, 75.730896%)" offset="0.578125"/><stop stop-opacity="1" stop-color="rgb(76.327515%, 43.832397%, 75.241089%)" offset="0.582031"/><stop stop-opacity="1" stop-color="rgb(76.489258%, 43.725586%, 74.751282%)" offset="0.585937"/><stop stop-opacity="1" stop-color="rgb(76.651001%, 43.618774%, 74.261475%)" offset="0.589844"/><stop stop-opacity="1" stop-color="rgb(76.812744%, 43.511963%, 73.771667%)" offset="0.59375"/><stop stop-opacity="1" stop-color="rgb(76.972961%, 43.403625%, 73.28186%)" offset="0.597656"/><stop stop-opacity="1" stop-color="rgb(77.134705%, 43.296814%, 72.792053%)" offset="0.601562"/><stop stop-opacity="1" stop-color="rgb(77.296448%, 43.190002%, 72.30072%)" offset="0.605469"/><stop stop-opacity="1" stop-color="rgb(77.458191%, 43.083191%, 71.810913%)" offset="0.609375"/><stop stop-opacity="1" stop-color="rgb(77.619934%, 42.976379%, 71.321106%)" offset="0.613281"/><stop stop-opacity="1" stop-color="rgb(77.781677%, 42.869568%, 70.831299%)" offset="0.617187"/><stop stop-opacity="1" stop-color="rgb(77.941895%, 42.762756%, 70.341492%)" offset="0.621094"/><stop stop-opacity="1" stop-color="rgb(78.103638%, 42.655945%, 69.851685%)" offset="0.625"/><stop stop-opacity="1" stop-color="rgb(78.265381%, 42.547607%, 69.360352%)" offset="0.628906"/><stop stop-opacity="1" stop-color="rgb(78.427124%, 42.440796%, 68.870544%)" offset="0.632812"/><stop stop-opacity="1" stop-color="rgb(78.587341%, 42.333984%, 68.380737%)" offset="0.636719"/><stop stop-opacity="1" stop-color="rgb(78.749084%, 42.227173%, 67.89093%)" offset="0.640625"/><stop stop-opacity="1" stop-color="rgb(78.910828%, 42.120361%, 67.401123%)" offset="0.644531"/><stop stop-opacity="1" stop-color="rgb(79.072571%, 42.01355%, 66.911316%)" offset="0.648437"/><stop stop-opacity="1" stop-color="rgb(79.234314%, 41.906738%, 66.421509%)" offset="0.652344"/><stop stop-opacity="1" stop-color="rgb(79.396057%, 41.799927%, 65.931702%)" offset="0.65625"/><stop stop-opacity="1" stop-color="rgb(79.556274%, 41.691589%, 65.440369%)" offset="0.660156"/><stop stop-opacity="1" stop-color="rgb(79.718018%, 41.584778%, 64.950562%)" offset="0.664062"/><stop stop-opacity="1" stop-color="rgb(79.879761%, 41.477966%, 64.460754%)" offset="0.667969"/><stop stop-opacity="1" stop-color="rgb(80.041504%, 41.371155%, 63.970947%)" offset="0.671875"/><stop stop-opacity="1" stop-color="rgb(80.203247%, 41.264343%, 63.48114%)" offset="0.675781"/><stop stop-opacity="1" stop-color="rgb(80.36499%, 41.157532%, 62.991333%)" offset="0.679687"/><stop stop-opacity="1" stop-color="rgb(80.525208%, 41.05072%, 62.501526%)" offset="0.683594"/><stop stop-opacity="1" stop-color="rgb(80.686951%, 40.943909%, 62.011719%)" offset="0.6875"/><stop stop-opacity="1" stop-color="rgb(80.848694%, 40.835571%, 61.520386%)" offset="0.691406"/><stop stop-opacity="1" stop-color="rgb(81.010437%, 40.72876%, 61.030579%)" offset="0.695312"/><stop stop-opacity="1" stop-color="rgb(81.17218%, 40.621948%, 60.540771%)" offset="0.699219"/><stop stop-opacity="1" stop-color="rgb(81.333923%, 40.515137%, 60.050964%)" offset="0.703125"/><stop stop-opacity="1" stop-color="rgb(81.494141%, 40.408325%, 59.561157%)" offset="0.707031"/><stop stop-opacity="1" stop-color="rgb(81.655884%, 40.301514%, 59.07135%)" offset="0.710937"/><stop stop-opacity="1" stop-color="rgb(81.817627%, 40.193176%, 58.580017%)" offset="0.714844"/><stop stop-opacity="1" stop-color="rgb(81.97937%, 40.086365%, 58.09021%)" offset="0.71875"/><stop stop-opacity="1" stop-color="rgb(82.139587%, 39.979553%, 57.600403%)" offset="0.722656"/><stop stop-opacity="1" stop-color="rgb(82.301331%, 39.872742%, 57.110596%)" offset="0.726562"/><stop stop-opacity="1" stop-color="rgb(82.463074%, 39.76593%, 56.620789%)" offset="0.730469"/><stop stop-opacity="1" stop-color="rgb(82.624817%, 39.659119%, 56.130981%)" offset="0.734375"/><stop stop-opacity="1" stop-color="rgb(82.78656%, 39.552307%, 55.641174%)" offset="0.738281"/><stop stop-opacity="1" stop-color="rgb(82.948303%, 39.445496%, 55.151367%)" offset="0.742187"/><stop stop-opacity="1" stop-color="rgb(83.108521%, 39.337158%, 54.660034%)" offset="0.746094"/><stop stop-opacity="1" stop-color="rgb(83.270264%, 39.230347%, 54.170227%)" offset="0.75"/><stop stop-opacity="1" stop-color="rgb(83.432007%, 39.123535%, 53.68042%)" offset="0.753906"/><stop stop-opacity="1" stop-color="rgb(83.59375%, 39.016724%, 53.190613%)" offset="0.757812"/><stop stop-opacity="1" stop-color="rgb(83.755493%, 38.909912%, 52.700806%)" offset="0.761719"/><stop stop-opacity="1" stop-color="rgb(83.917236%, 38.803101%, 52.210999%)" offset="0.765625"/><stop stop-opacity="1" stop-color="rgb(84.077454%, 38.696289%, 51.721191%)" offset="0.769531"/><stop stop-opacity="1" stop-color="rgb(84.239197%, 38.589478%, 51.231384%)" offset="0.773437"/><stop stop-opacity="1" stop-color="rgb(84.40094%, 38.48114%, 50.740051%)" offset="0.777344"/><stop stop-opacity="1" stop-color="rgb(84.562683%, 38.374329%, 50.250244%)" offset="0.78125"/><stop stop-opacity="1" stop-color="rgb(84.7229%, 38.267517%, 49.760437%)" offset="0.785156"/><stop stop-opacity="1" stop-color="rgb(84.884644%, 38.160706%, 49.27063%)" offset="0.789062"/><stop stop-opacity="1" stop-color="rgb(85.046387%, 38.053894%, 48.780823%)" offset="0.792969"/><stop stop-opacity="1" stop-color="rgb(85.20813%, 37.947083%, 48.291016%)" offset="0.796875"/><stop stop-opacity="1" stop-color="rgb(85.369873%, 37.840271%, 47.799683%)" offset="0.800781"/><stop stop-opacity="1" stop-color="rgb(85.531616%, 37.733459%, 47.309875%)" offset="0.804688"/><stop stop-opacity="1" stop-color="rgb(85.691833%, 37.625122%, 46.820068%)" offset="0.808594"/><stop stop-opacity="1" stop-color="rgb(85.853577%, 37.518311%, 46.330261%)" offset="0.8125"/><stop stop-opacity="1" stop-color="rgb(86.01532%, 37.411499%, 45.840454%)" offset="0.816406"/><stop stop-opacity="1" stop-color="rgb(86.177063%, 37.304688%, 45.350647%)" offset="0.820312"/><stop stop-opacity="1" stop-color="rgb(86.338806%, 37.197876%, 44.86084%)" offset="0.824219"/><stop stop-opacity="1" stop-color="rgb(86.500549%, 37.091064%, 44.371033%)" offset="0.828125"/><stop stop-opacity="1" stop-color="rgb(86.660767%, 36.982727%, 43.8797%)" offset="0.832031"/><stop stop-opacity="1" stop-color="rgb(86.82251%, 36.875916%, 43.389893%)" offset="0.835938"/><stop stop-opacity="1" stop-color="rgb(86.984253%, 36.769104%, 42.900085%)" offset="0.839844"/><stop stop-opacity="1" stop-color="rgb(87.145996%, 36.662292%, 42.410278%)" offset="0.84375"/><stop stop-opacity="1" stop-color="rgb(87.306213%, 36.555481%, 41.920471%)" offset="0.847656"/><stop stop-opacity="1" stop-color="rgb(87.467957%, 36.448669%, 41.430664%)" offset="0.851562"/><stop stop-opacity="1" stop-color="rgb(87.6297%, 36.341858%, 40.939331%)" offset="0.855469"/><stop stop-opacity="1" stop-color="rgb(87.791443%, 36.235046%, 40.449524%)" offset="0.859375"/><stop stop-opacity="1" stop-color="rgb(87.953186%, 36.126709%, 39.959717%)" offset="0.863281"/><stop stop-opacity="1" stop-color="rgb(88.114929%, 36.019897%, 39.46991%)" offset="0.867188"/><stop stop-opacity="1" stop-color="rgb(88.275146%, 35.913086%, 38.980103%)" offset="0.871094"/><stop stop-opacity="1" stop-color="rgb(88.43689%, 35.806274%, 38.490295%)" offset="0.875"/><stop stop-opacity="1" stop-color="rgb(88.517761%, 35.752869%, 38.244629%)" offset="0.878906"/><stop stop-opacity="1" stop-color="rgb(88.598633%, 35.699463%, 37.998962%)" offset="0.882812"/><stop stop-opacity="1" stop-color="rgb(88.598633%, 35.699463%, 37.998962%)" offset="0.890625"/><stop stop-opacity="1" stop-color="rgb(88.598633%, 35.699463%, 37.998962%)" offset="0.90625"/><stop stop-opacity="1" stop-color="rgb(88.598633%, 35.699463%, 37.998962%)" offset="0.9375"/><stop stop-opacity="1" stop-color="rgb(88.598633%, 35.699463%, 37.998962%)" offset="1"/></linearGradient></defs><g clip-path="url(#id1)"><g clip-path="url(#id2)"><path fill="url(#id3)" d="M 2.800781 0.0429688 L 2.800781 126.589844 L 108.660156 126.589844 L 108.660156 0.0429688 Z M 2.800781 0.0429688 " fill-rule="nonzero"/></g></g><g fill="#5ebce5" fill-opacity="1"><g transform="translate(108.574532, 90.212777)"><g><path d="M 6.234375 0 L 6.234375 -50.28125 L 36.921875 -50.28125 L 36.921875 -44.25 L 13.28125 -44.25 L 13.28125 -29.3125 L 34.3125 -29.3125 L 34.3125 -23.4375 L 13.28125 -23.4375 L 13.28125 -6.015625 L 38.734375 -6.015625 L 38.734375 0 Z M 6.234375 0 "/></g></g></g><g fill="#5ebce5" fill-opacity="1"><g transform="translate(149.997898, 90.212777)"><g><path d="M 18.578125 -4.859375 C 20.171875 -4.859375 21.582031 -4.894531 22.8125 -4.96875 C 24.050781 -5.039062 25.082031 -5.175781 25.90625 -5.375 L 25.90625 -16.609375 C 25.414062 -16.847656 24.625 -17.050781 23.53125 -17.21875 C 22.445312 -17.394531 21.132812 -17.484375 19.59375 -17.484375 C 18.570312 -17.484375 17.492188 -17.410156 16.359375 -17.265625 C 15.222656 -17.117188 14.179688 -16.816406 13.234375 -16.359375 C 12.296875 -15.898438 11.507812 -15.269531 10.875 -14.46875 C 10.25 -13.675781 9.9375 -12.625 9.9375 -11.3125 C 9.9375 -8.894531 10.707031 -7.210938 12.25 -6.265625 C 13.800781 -5.328125 15.910156 -4.859375 18.578125 -4.859375 Z M 17.984375 -38.671875 C 20.691406 -38.671875 22.976562 -38.316406 24.84375 -37.609375 C 26.707031 -36.910156 28.207031 -35.921875 29.34375 -34.640625 C 30.476562 -33.359375 31.285156 -31.832031 31.765625 -30.0625 C 32.253906 -28.300781 32.5 -26.359375 32.5 -24.234375 L 32.5 -0.65625 C 31.914062 -0.5625 31.101562 -0.425781 30.0625 -0.25 C 29.03125 -0.0820312 27.859375 0.0703125 26.546875 0.21875 C 25.242188 0.363281 23.828125 0.492188 22.296875 0.609375 C 20.773438 0.734375 19.269531 0.796875 17.78125 0.796875 C 15.644531 0.796875 13.679688 0.578125 11.890625 0.140625 C 10.109375 -0.296875 8.5625 -0.984375 7.25 -1.921875 C 5.945312 -2.867188 4.929688 -4.113281 4.203125 -5.65625 C 3.484375 -7.207031 3.125 -9.070312 3.125 -11.25 C 3.125 -13.320312 3.546875 -15.109375 4.390625 -16.609375 C 5.234375 -18.109375 6.378906 -19.316406 7.828125 -20.234375 C 9.285156 -21.160156 10.976562 -21.835938 12.90625 -22.265625 C 14.84375 -22.703125 16.875 -22.921875 19 -22.921875 C 19.675781 -22.921875 20.378906 -22.882812 21.109375 -22.8125 C 21.835938 -22.738281 22.523438 -22.640625 23.171875 -22.515625 C 23.828125 -22.398438 24.394531 -22.289062 24.875 -22.1875 C 25.363281 -22.09375 25.707031 -22.023438 25.90625 -21.984375 L 25.90625 -23.875 C 25.90625 -24.976562 25.78125 -26.070312 25.53125 -27.15625 C 25.289062 -28.25 24.851562 -29.21875 24.21875 -30.0625 C 23.59375 -30.914062 22.734375 -31.59375 21.640625 -32.09375 C 20.554688 -32.601562 19.144531 -32.859375 17.40625 -32.859375 C 15.1875 -32.859375 13.238281 -32.703125 11.5625 -32.390625 C 9.894531 -32.078125 8.648438 -31.75 7.828125 -31.40625 L 7.03125 -37 C 7.90625 -37.382812 9.359375 -37.757812 11.390625 -38.125 C 13.421875 -38.488281 15.617188 -38.671875 17.984375 -38.671875 Z M 17.984375 -38.671875 "/></g></g></g><g fill="#5ebce5" fill-opacity="1"><g transform="translate(187.866539, 90.212777)"><g><path d="M 14.578125 -4.859375 C 17.335938 -4.859375 19.378906 -5.21875 20.703125 -5.9375 C 22.035156 -6.664062 22.703125 -7.832031 22.703125 -9.4375 C 22.703125 -11.070312 22.050781 -12.375 20.75 -13.34375 C 19.445312 -14.3125 17.296875 -15.398438 14.296875 -16.609375 C 12.835938 -17.191406 11.441406 -17.785156 10.109375 -18.390625 C 8.785156 -18.992188 7.640625 -19.707031 6.671875 -20.53125 C 5.703125 -21.351562 4.925781 -22.34375 4.34375 -23.5 C 3.769531 -24.664062 3.484375 -26.09375 3.484375 -27.78125 C 3.484375 -31.125 4.710938 -33.773438 7.171875 -35.734375 C 9.640625 -37.691406 13.003906 -38.671875 17.265625 -38.671875 C 18.328125 -38.671875 19.390625 -38.609375 20.453125 -38.484375 C 21.515625 -38.367188 22.503906 -38.222656 23.421875 -38.046875 C 24.347656 -37.878906 25.160156 -37.695312 25.859375 -37.5 C 26.566406 -37.3125 27.113281 -37.144531 27.5 -37 L 26.265625 -31.1875 C 25.535156 -31.582031 24.394531 -31.984375 22.84375 -32.390625 C 21.300781 -32.804688 19.441406 -33.015625 17.265625 -33.015625 C 15.378906 -33.015625 13.734375 -32.640625 12.328125 -31.890625 C 10.929688 -31.140625 10.234375 -29.960938 10.234375 -28.359375 C 10.234375 -27.535156 10.390625 -26.8125 10.703125 -26.1875 C 11.015625 -25.5625 11.492188 -24.992188 12.140625 -24.484375 C 12.796875 -23.972656 13.609375 -23.5 14.578125 -23.0625 C 15.546875 -22.632812 16.707031 -22.175781 18.0625 -21.6875 C 19.851562 -21.007812 21.445312 -20.34375 22.84375 -19.6875 C 24.25 -19.039062 25.445312 -18.28125 26.4375 -17.40625 C 27.4375 -16.539062 28.203125 -15.488281 28.734375 -14.25 C 29.265625 -13.019531 29.53125 -11.507812 29.53125 -9.71875 C 29.53125 -6.238281 28.234375 -3.601562 25.640625 -1.8125 C 23.054688 -0.0195312 19.367188 0.875 14.578125 0.875 C 11.242188 0.875 8.632812 0.59375 6.75 0.03125 C 4.863281 -0.519531 3.582031 -0.941406 2.90625 -1.234375 L 4.140625 -7.03125 C 4.910156 -6.75 6.140625 -6.316406 7.828125 -5.734375 C 9.523438 -5.148438 11.773438 -4.859375 14.578125 -4.859375 Z M 14.578125 -4.859375 "/></g></g></g><g fill="#5ebce5" fill-opacity="1"><g transform="translate(220.221745, 90.212777)"><g><path d="M 1.375 7.03125 C 1.90625 7.28125 2.59375 7.507812 3.4375 7.71875 C 4.289062 7.9375 5.128906 8.046875 5.953125 8.046875 C 8.609375 8.046875 10.6875 7.453125 12.1875 6.265625 C 13.6875 5.085938 15.039062 3.171875 16.25 0.515625 C 13.207031 -5.296875 10.363281 -11.453125 7.71875 -17.953125 C 5.082031 -24.460938 2.894531 -31.050781 1.15625 -37.71875 L 8.421875 -37.71875 C 8.953125 -35.539062 9.59375 -33.195312 10.34375 -30.6875 C 11.09375 -28.175781 11.925781 -25.585938 12.84375 -22.921875 C 13.757812 -20.265625 14.75 -17.601562 15.8125 -14.9375 C 16.875 -12.28125 17.988281 -9.71875 19.15625 -7.25 C 20.988281 -12.332031 22.582031 -17.363281 23.9375 -22.34375 C 25.289062 -27.320312 26.570312 -32.445312 27.78125 -37.71875 L 34.75 -37.71875 C 33.007812 -30.613281 31.070312 -23.785156 28.9375 -17.234375 C 26.8125 -10.679688 24.515625 -4.550781 22.046875 1.15625 C 21.085938 3.332031 20.085938 5.207031 19.046875 6.78125 C 18.003906 8.351562 16.851562 9.644531 15.59375 10.65625 C 14.34375 11.675781 12.929688 12.425781 11.359375 12.90625 C 9.785156 13.394531 8.003906 13.640625 6.015625 13.640625 C 5.484375 13.640625 4.925781 13.601562 4.34375 13.53125 C 3.769531 13.457031 3.203125 13.359375 2.640625 13.234375 C 2.085938 13.117188 1.582031 12.988281 1.125 12.84375 C 0.664062 12.695312 0.335938 12.578125 0.140625 12.484375 Z M 1.375 7.03125 "/></g></g></g><g fill="#b678e6" fill-opacity="1"><g transform="translate(256.262316, 90.212777)"><g><path d="M 39.828125 -50.28125 L 39.828125 -44.1875 L 24.015625 -44.1875 L 24.015625 0 L 16.96875 0 L 16.96875 -44.1875 L 1.15625 -44.1875 L 1.15625 -50.28125 Z M 39.828125 -50.28125 "/></g></g></g><g fill="#b678e6" fill-opacity="1"><g transform="translate(297.250406, 90.212777)"><g><path d="M 18.578125 -4.859375 C 20.171875 -4.859375 21.582031 -4.894531 22.8125 -4.96875 C 24.050781 -5.039062 25.082031 -5.175781 25.90625 -5.375 L 25.90625 -16.609375 C 25.414062 -16.847656 24.625 -17.050781 23.53125 -17.21875 C 22.445312 -17.394531 21.132812 -17.484375 19.59375 -17.484375 C 18.570312 -17.484375 17.492188 -17.410156 16.359375 -17.265625 C 15.222656 -17.117188 14.179688 -16.816406 13.234375 -16.359375 C 12.296875 -15.898438 11.507812 -15.269531 10.875 -14.46875 C 10.25 -13.675781 9.9375 -12.625 9.9375 -11.3125 C 9.9375 -8.894531 10.707031 -7.210938 12.25 -6.265625 C 13.800781 -5.328125 15.910156 -4.859375 18.578125 -4.859375 Z M 17.984375 -38.671875 C 20.691406 -38.671875 22.976562 -38.316406 24.84375 -37.609375 C 26.707031 -36.910156 28.207031 -35.921875 29.34375 -34.640625 C 30.476562 -33.359375 31.285156 -31.832031 31.765625 -30.0625 C 32.253906 -28.300781 32.5 -26.359375 32.5 -24.234375 L 32.5 -0.65625 C 31.914062 -0.5625 31.101562 -0.425781 30.0625 -0.25 C 29.03125 -0.0820312 27.859375 0.0703125 26.546875 0.21875 C 25.242188 0.363281 23.828125 0.492188 22.296875 0.609375 C 20.773438 0.734375 19.269531 0.796875 17.78125 0.796875 C 15.644531 0.796875 13.679688 0.578125 11.890625 0.140625 C 10.109375 -0.296875 8.5625 -0.984375 7.25 -1.921875 C 5.945312 -2.867188 4.929688 -4.113281 4.203125 -5.65625 C 3.484375 -7.207031 3.125 -9.070312 3.125 -11.25 C 3.125 -13.320312 3.546875 -15.109375 4.390625 -16.609375 C 5.234375 -18.109375 6.378906 -19.316406 7.828125 -20.234375 C 9.285156 -21.160156 10.976562 -21.835938 12.90625 -22.265625 C 14.84375 -22.703125 16.875 -22.921875 19 -22.921875 C 19.675781 -22.921875 20.378906 -22.882812 21.109375 -22.8125 C 21.835938 -22.738281 22.523438 -22.640625 23.171875 -22.515625 C 23.828125 -22.398438 24.394531 -22.289062 24.875 -22.1875 C 25.363281 -22.09375 25.707031 -22.023438 25.90625 -21.984375 L 25.90625 -23.875 C 25.90625 -24.976562 25.78125 -26.070312 25.53125 -27.15625 C 25.289062 -28.25 24.851562 -29.21875 24.21875 -30.0625 C 23.59375 -30.914062 22.734375 -31.59375 21.640625 -32.09375 C 20.554688 -32.601562 19.144531 -32.859375 17.40625 -32.859375 C 15.1875 -32.859375 13.238281 -32.703125 11.5625 -32.390625 C 9.894531 -32.078125 8.648438 -31.75 7.828125 -31.40625 L 7.03125 -37 C 7.90625 -37.382812 9.359375 -37.757812 11.390625 -38.125 C 13.421875 -38.488281 15.617188 -38.671875 17.984375 -38.671875 Z M 17.984375 -38.671875 "/></g></g></g><g fill="#b678e6" fill-opacity="1"><g transform="translate(335.119047, 90.212777)"><g><path d="M 28.359375 0 C 27.828125 -1.0625 27.175781 -2.242188 26.40625 -3.546875 C 25.632812 -4.859375 24.785156 -6.203125 23.859375 -7.578125 C 22.941406 -8.960938 22 -10.332031 21.03125 -11.6875 C 20.070312 -13.039062 19.128906 -14.320312 18.203125 -15.53125 C 17.285156 -14.320312 16.34375 -13.023438 15.375 -11.640625 C 14.40625 -10.265625 13.472656 -8.882812 12.578125 -7.5 C 11.691406 -6.125 10.859375 -4.785156 10.078125 -3.484375 C 9.304688 -2.179688 8.65625 -1.019531 8.125 0 L 1.15625 0 C 2.851562 -3.289062 4.875 -6.640625 7.21875 -10.046875 C 9.5625 -13.453125 11.894531 -16.707031 14.21875 -19.8125 L 1.734375 -37.71875 L 9.359375 -37.71875 L 18.359375 -24.515625 L 27.421875 -37.71875 L 34.609375 -37.71875 L 22.421875 -20.234375 C 24.742188 -17.097656 27.125 -13.773438 29.5625 -10.265625 C 32 -6.753906 34.066406 -3.332031 35.765625 0 Z M 28.359375 0 "/></g></g></g></svg>