<svg xmlns="http://www.w3.org/2000/svg" xmlns:xlink="http://www.w3.org/1999/xlink" width="500" zoomAndPan="magnify" viewBox="0 0 375 374.999991" height="500" preserveAspectRatio="xMidYMid meet" version="1.0"><defs><clipPath id="id1"><path d="M 104.496094 63.8125 L 292.671875 63.8125 L 292.671875 289.800781 L 104.496094 289.800781 Z M 104.496094 63.8125 " clip-rule="nonzero"/></clipPath><clipPath id="id2"><path d="M 138.367188 127.878906 L 160.949219 127.878906 C 163.027344 127.878906 164.714844 129.566406 164.714844 131.644531 C 164.714844 133.722656 163.027344 135.40625 160.949219 135.40625 L 153.421875 135.40625 L 153.421875 154.226562 C 153.421875 156.304688 151.738281 157.988281 149.660156 157.988281 C 147.582031 157.988281 145.894531 156.304688 145.894531 154.226562 L 145.894531 135.40625 L 138.367188 135.40625 C 136.289062 135.40625 134.605469 133.722656 134.605469 131.644531 C 134.605469 129.566406 136.289062 127.878906 138.367188 127.878906 Z M 161.347656 152.542969 L 172.636719 129.960938 C 173.273438 128.6875 174.578125 127.878906 176.003906 127.878906 C 177.429688 127.878906 178.730469 128.6875 179.371094 129.960938 L 190.660156 152.542969 C 191.589844 154.402344 190.835938 156.660156 188.976562 157.589844 C 188.4375 157.859375 187.863281 157.988281 187.296875 157.988281 C 185.917969 157.988281 184.585938 157.226562 183.929688 155.910156 L 181.203125 150.460938 L 170.800781 150.460938 L 168.078125 155.910156 C 167.148438 157.769531 164.890625 158.519531 163.03125 157.589844 C 161.171875 156.660156 160.417969 154.402344 161.347656 152.542969 Z M 176.003906 140.058594 L 174.566406 142.933594 L 177.441406 142.933594 Z M 195.921875 156.886719 C 196.660156 157.621094 197.621094 157.988281 198.585938 157.988281 C 199.546875 157.988281 200.511719 157.621094 201.246094 156.886719 L 209.875 148.257812 L 218.503906 156.886719 C 219.238281 157.621094 220.203125 157.988281 221.164062 157.988281 C 222.128906 157.988281 223.09375 157.621094 223.828125 156.886719 C 225.296875 155.417969 225.296875 153.035156 223.828125 151.5625 L 215.199219 142.933594 L 223.828125 134.304688 C 225.296875 132.835938 225.296875 130.453125 223.828125 128.984375 C 222.355469 127.515625 219.976562 127.515625 218.503906 128.984375 L 209.875 137.613281 L 201.246094 128.984375 C 199.777344 127.511719 197.394531 127.511719 195.921875 128.984375 C 194.453125 130.453125 194.453125 132.835938 195.921875 134.304688 L 204.554688 142.933594 L 195.921875 151.5625 C 194.453125 153.035156 194.453125 155.417969 195.921875 156.886719 Z M 232.457031 135.40625 L 236.21875 135.40625 C 238.296875 135.40625 239.984375 133.722656 239.984375 131.644531 C 239.984375 129.566406 238.296875 127.878906 236.21875 127.878906 L 232.457031 127.878906 C 230.378906 127.878906 228.691406 129.566406 228.691406 131.644531 C 228.691406 133.722656 230.378906 135.40625 232.457031 135.40625 Z M 232.457031 146.699219 L 236.21875 146.699219 C 238.296875 146.699219 239.984375 145.011719 239.984375 142.933594 C 239.984375 140.855469 238.296875 139.171875 236.21875 139.171875 L 232.457031 139.171875 C 230.378906 139.171875 228.691406 140.855469 228.691406 142.933594 C 228.691406 145.011719 230.378906 146.699219 232.457031 146.699219 Z M 232.457031 157.988281 L 236.21875 157.988281 C 238.296875 157.988281 239.984375 156.304688 239.984375 154.226562 C 239.984375 152.148438 238.296875 150.460938 236.21875 150.460938 L 232.457031 150.460938 C 230.378906 150.460938 228.691406 152.148438 228.691406 154.226562 C 228.691406 156.304688 230.378906 157.988281 232.457031 157.988281 Z M 236.21875 165.515625 L 172.242188 165.515625 C 170.160156 165.515625 168.476562 167.199219 168.476562 169.277344 C 168.476562 171.359375 170.160156 173.042969 172.242188 173.042969 L 236.21875 173.042969 C 238.296875 173.042969 239.984375 171.359375 239.984375 169.277344 C 239.984375 167.199219 238.296875 165.515625 236.21875 165.515625 Z M 236.21875 180.570312 L 187.292969 180.570312 C 185.214844 180.570312 183.53125 182.253906 183.53125 184.332031 C 183.53125 186.410156 185.214844 188.097656 187.292969 188.097656 L 236.21875 188.097656 C 238.296875 188.097656 239.984375 186.410156 239.984375 184.332031 C 239.984375 182.253906 238.296875 180.570312 236.21875 180.570312 Z M 236.21875 195.625 L 187.292969 195.625 C 185.214844 195.625 183.53125 197.308594 183.53125 199.386719 C 183.53125 201.464844 185.214844 203.152344 187.292969 203.152344 L 236.21875 203.152344 C 238.296875 203.152344 239.984375 201.464844 239.984375 199.386719 C 239.984375 197.308594 238.296875 195.625 236.21875 195.625 Z M 236.21875 210.675781 L 183.53125 210.675781 C 181.453125 210.675781 179.765625 212.363281 179.765625 214.441406 C 179.765625 216.519531 181.453125 218.203125 183.53125 218.203125 L 236.21875 218.203125 C 238.296875 218.203125 239.984375 216.519531 239.984375 214.441406 C 239.984375 212.363281 238.296875 210.675781 236.21875 210.675781 Z M 221.164062 225.730469 L 138.367188 225.730469 C 136.289062 225.730469 134.605469 227.417969 134.605469 229.496094 C 134.605469 231.574219 136.289062 233.257812 138.367188 233.257812 L 221.164062 233.257812 C 223.246094 233.257812 224.929688 231.574219 224.929688 229.496094 C 224.929688 227.417969 223.246094 225.730469 221.164062 225.730469 Z M 264.347656 289.25 C 263.472656 289.550781 262.558594 289.710938 261.625 289.710938 L 112.964844 289.710938 C 108.296875 289.710938 104.496094 285.914062 104.496094 281.242188 L 104.496094 94.949219 C 104.496094 90.28125 108.296875 86.480469 112.964844 86.480469 L 142.867188 86.480469 C 144.515625 82.089844 148.757812 78.957031 153.71875 78.957031 L 160.949219 78.957031 L 160.949219 76.78125 C 160.949219 69.679688 166.726562 63.902344 173.828125 63.902344 L 200.757812 63.902344 C 207.863281 63.902344 213.640625 69.679688 213.640625 76.78125 L 213.640625 78.957031 L 220.871094 78.957031 C 225.832031 78.957031 230.074219 82.089844 231.71875 86.480469 L 261.625 86.480469 C 266.292969 86.480469 270.089844 90.28125 270.089844 94.949219 L 270.089844 223.910156 C 283.234375 228.570312 292.671875 241.121094 292.671875 255.839844 C 292.671875 272.628906 280.394531 286.59375 264.347656 289.25 Z M 261.625 94.007812 L 232.457031 94.007812 L 232.457031 97.773438 L 251.273438 97.773438 C 253.351562 97.773438 255.039062 99.457031 255.039062 101.535156 L 255.039062 222.183594 C 256.273438 222.042969 257.527344 221.96875 258.800781 221.96875 C 260.074219 221.96875 261.328125 222.042969 262.5625 222.183594 L 262.5625 94.949219 C 262.5625 94.429688 262.140625 94.007812 261.625 94.007812 Z M 142.132812 105.933594 L 142.132812 105.300781 L 127.078125 105.300781 L 127.078125 270.894531 L 228.472656 270.894531 C 226.207031 266.355469 224.929688 261.246094 224.929688 255.839844 C 224.929688 241.121094 234.367188 228.570312 247.511719 223.910156 L 247.511719 105.300781 L 232.457031 105.300781 L 232.457031 105.933594 C 232.457031 111.808594 227.675781 116.589844 221.800781 116.589844 L 152.785156 116.589844 C 146.910156 116.589844 142.132812 111.808594 142.132812 105.933594 Z M 149.660156 105.933594 C 149.660156 107.660156 151.0625 109.0625 152.785156 109.0625 L 221.800781 109.0625 C 223.527344 109.0625 224.929688 107.660156 224.929688 105.933594 L 224.929688 90.542969 C 224.929688 88.304688 223.109375 86.480469 220.871094 86.480469 L 209.875 86.480469 C 207.796875 86.480469 206.113281 84.796875 206.113281 82.71875 L 206.113281 76.78125 C 206.113281 73.828125 203.710938 71.429688 200.757812 71.429688 L 173.828125 71.429688 C 170.878906 71.429688 168.476562 73.828125 168.476562 76.78125 L 168.476562 82.71875 C 168.476562 84.796875 166.792969 86.480469 164.714844 86.480469 L 153.71875 86.480469 C 151.480469 86.480469 149.660156 88.304688 149.660156 90.542969 Z M 237.542969 282.183594 C 236.125 281.035156 234.800781 279.777344 233.582031 278.421875 L 123.316406 278.421875 C 121.238281 278.421875 119.550781 276.734375 119.550781 274.65625 L 119.550781 101.535156 C 119.550781 99.457031 121.238281 97.773438 123.316406 97.773438 L 142.132812 97.773438 L 142.132812 94.007812 L 112.964844 94.007812 C 112.445312 94.007812 112.023438 94.429688 112.023438 94.949219 L 112.023438 281.242188 C 112.023438 281.761719 112.445312 282.183594 112.964844 282.183594 Z M 285.144531 255.839844 C 285.144531 241.3125 273.328125 229.496094 258.800781 229.496094 C 244.273438 229.496094 232.457031 241.3125 232.457031 255.839844 C 232.457031 270.367188 244.273438 282.183594 258.800781 282.183594 C 273.328125 282.183594 285.144531 270.367188 285.144531 255.839844 Z M 160.949219 255.839844 L 138.367188 255.839844 C 136.289062 255.839844 134.605469 257.523438 134.605469 259.601562 C 134.605469 261.679688 136.289062 263.367188 138.367188 263.367188 L 160.949219 263.367188 C 163.027344 263.367188 164.714844 261.679688 164.714844 259.601562 C 164.714844 257.523438 163.027344 255.839844 160.949219 255.839844 Z M 198.585938 255.839844 L 176.003906 255.839844 C 173.925781 255.839844 172.242188 257.523438 172.242188 259.601562 C 172.242188 261.679688 173.925781 263.367188 176.003906 263.367188 L 198.585938 263.367188 C 200.664062 263.367188 202.347656 261.679688 202.347656 259.601562 C 202.347656 257.523438 200.664062 255.839844 198.585938 255.839844 Z M 269.3125 243.769531 L 251.273438 261.808594 L 246.40625 256.941406 C 244.9375 255.472656 242.554688 255.472656 241.085938 256.941406 C 239.617188 258.410156 239.617188 260.792969 241.085938 262.265625 L 248.613281 269.792969 C 249.347656 270.527344 250.308594 270.894531 251.273438 270.894531 C 252.238281 270.894531 253.199219 270.527344 253.933594 269.792969 L 274.632812 249.089844 C 276.105469 247.621094 276.105469 245.238281 274.632812 243.769531 C 273.164062 242.300781 270.78125 242.300781 269.3125 243.769531 Z M 134.605469 195.625 C 134.605469 183.171875 144.734375 173.042969 157.1875 173.042969 C 169.636719 173.042969 179.765625 183.171875 179.765625 195.625 C 179.765625 208.074219 169.636719 218.203125 157.1875 218.203125 C 144.734375 218.203125 134.605469 208.074219 134.605469 195.625 Z M 142.132812 195.625 C 142.132812 203.925781 148.886719 210.675781 157.1875 210.675781 C 165.488281 210.675781 172.242188 203.925781 172.242188 195.625 C 172.242188 187.324219 165.488281 180.570312 157.1875 180.570312 C 148.886719 180.570312 142.132812 187.324219 142.132812 195.625 Z M 149.660156 206.914062 C 150.621094 206.914062 151.585938 206.546875 152.320312 205.8125 L 167.375 190.757812 C 168.84375 189.289062 168.84375 186.90625 167.375 185.4375 C 165.90625 183.964844 163.523438 183.964844 162.050781 185.4375 L 147 200.488281 C 145.527344 201.960938 145.527344 204.34375 147 205.8125 C 147.734375 206.546875 148.695312 206.914062 149.660156 206.914062 Z M 149.667969 191.859375 C 151.746094 191.859375 153.433594 190.175781 153.433594 188.097656 C 153.433594 186.019531 151.746094 184.332031 149.667969 184.332031 L 149.664062 184.332031 C 147.585938 184.332031 145.902344 186.019531 145.902344 188.097656 C 145.902344 190.175781 147.589844 191.859375 149.667969 191.859375 Z M 164.722656 199.386719 L 164.71875 199.386719 C 162.640625 199.386719 160.957031 201.074219 160.957031 203.152344 C 160.957031 205.230469 162.644531 206.914062 164.722656 206.914062 C 166.800781 206.914062 168.484375 205.230469 168.484375 203.152344 C 168.484375 201.074219 166.800781 199.386719 164.722656 199.386719 Z M 213.640625 240.785156 L 138.367188 240.785156 C 136.289062 240.785156 134.605469 242.472656 134.605469 244.550781 C 134.605469 246.628906 136.289062 248.3125 138.367188 248.3125 L 213.640625 248.3125 C 215.71875 248.3125 217.402344 246.628906 217.402344 244.550781 C 217.402344 242.472656 215.71875 240.785156 213.640625 240.785156 Z M 213.640625 240.785156 " clip-rule="nonzero"/></clipPath><linearGradient x1="64.080017" gradientTransform="matrix(0.470437, 0, 0, 0.470438, 66.862369, 56.374089)" y1="480.079985" x2="504.07999" gradientUnits="userSpaceOnUse" y2="40.080012" id="id3"><stop stop-opacity="1" stop-color="rgb(36.898804%, 73.699951%, 89.7995%)" offset="0"/><stop stop-opacity="1" stop-color="rgb(36.898804%, 73.699951%, 89.7995%)" offset="0.0078125"/><stop stop-opacity="1" stop-color="rgb(38.574219%, 72.451782%, 89.801025%)" offset="0.0117188"/><stop stop-opacity="1" stop-color="rgb(40.25116%, 71.203613%, 89.802551%)" offset="0.015625"/><stop stop-opacity="1" stop-color="rgb(40.522766%, 70.993042%, 89.805603%)" offset="0.0195312"/><stop stop-opacity="1" stop-color="rgb(40.795898%, 70.782471%, 89.808655%)" offset="0.0234375"/><stop stop-opacity="1" stop-color="rgb(41.067505%, 70.571899%, 89.811707%)" offset="0.0273438"/><stop stop-opacity="1" stop-color="rgb(41.339111%, 70.361328%, 89.816284%)" offset="0.03125"/><stop stop-opacity="1" stop-color="rgb(41.610718%, 70.150757%, 89.819336%)" offset="0.0351562"/><stop stop-opacity="1" stop-color="rgb(41.88385%, 69.940186%, 89.823914%)" offset="0.0390625"/><stop stop-opacity="1" stop-color="rgb(42.155457%, 69.729614%, 89.826965%)" offset="0.0429688"/><stop stop-opacity="1" stop-color="rgb(42.428589%, 69.519043%, 89.830017%)" offset="0.046875"/><stop stop-opacity="1" stop-color="rgb(42.700195%, 69.308472%, 89.833069%)" offset="0.0507813"/><stop stop-opacity="1" stop-color="rgb(42.971802%, 69.0979%, 89.837646%)" offset="0.0546875"/><stop stop-opacity="1" stop-color="rgb(43.243408%, 68.887329%, 89.840698%)" offset="0.0585938"/><stop stop-opacity="1" stop-color="rgb(43.516541%, 68.676758%, 89.84375%)" offset="0.0625"/><stop stop-opacity="1" stop-color="rgb(43.788147%, 68.466187%, 89.846802%)" offset="0.0664063"/><stop stop-opacity="1" stop-color="rgb(44.061279%, 68.255615%, 89.851379%)" offset="0.0703125"/><stop stop-opacity="1" stop-color="rgb(44.332886%, 68.045044%, 89.854431%)" offset="0.0742188"/><stop stop-opacity="1" stop-color="rgb(44.604492%, 67.834473%, 89.857483%)" offset="0.078125"/><stop stop-opacity="1" stop-color="rgb(44.876099%, 67.623901%, 89.860535%)" offset="0.0820312"/><stop stop-opacity="1" stop-color="rgb(45.149231%, 67.41333%, 89.865112%)" offset="0.0859375"/><stop stop-opacity="1" stop-color="rgb(45.420837%, 67.202759%, 89.868164%)" offset="0.0898438"/><stop stop-opacity="1" stop-color="rgb(45.69397%, 66.992188%, 89.871216%)" offset="0.09375"/><stop stop-opacity="1" stop-color="rgb(45.965576%, 66.781616%, 89.874268%)" offset="0.0976563"/><stop stop-opacity="1" stop-color="rgb(46.237183%, 66.571045%, 89.878845%)" offset="0.101563"/><stop stop-opacity="1" stop-color="rgb(46.508789%, 66.360474%, 89.881897%)" offset="0.105469"/><stop stop-opacity="1" stop-color="rgb(46.781921%, 66.149902%, 89.884949%)" offset="0.109375"/><stop stop-opacity="1" stop-color="rgb(47.053528%, 65.939331%, 89.888%)" offset="0.113281"/><stop stop-opacity="1" stop-color="rgb(47.325134%, 65.72876%, 89.892578%)" offset="0.117188"/><stop stop-opacity="1" stop-color="rgb(47.596741%, 65.518188%, 89.89563%)" offset="0.121094"/><stop stop-opacity="1" stop-color="rgb(47.869873%, 65.307617%, 89.900208%)" offset="0.125"/><stop stop-opacity="1" stop-color="rgb(48.141479%, 65.097046%, 89.903259%)" offset="0.128906"/><stop stop-opacity="1" stop-color="rgb(48.414612%, 64.886475%, 89.906311%)" offset="0.132812"/><stop stop-opacity="1" stop-color="rgb(48.686218%, 64.675903%, 89.909363%)" offset="0.136719"/><stop stop-opacity="1" stop-color="rgb(48.957825%, 64.465332%, 89.91394%)" offset="0.140625"/><stop stop-opacity="1" stop-color="rgb(49.229431%, 64.254761%, 89.916992%)" offset="0.144531"/><stop stop-opacity="1" stop-color="rgb(49.502563%, 64.044189%, 89.920044%)" offset="0.148438"/><stop stop-opacity="1" stop-color="rgb(49.77417%, 63.833618%, 89.923096%)" offset="0.152344"/><stop stop-opacity="1" stop-color="rgb(50.047302%, 63.623047%, 89.927673%)" offset="0.15625"/><stop stop-opacity="1" stop-color="rgb(50.318909%, 63.412476%, 89.930725%)" offset="0.160156"/><stop stop-opacity="1" stop-color="rgb(50.590515%, 63.201904%, 89.933777%)" offset="0.164062"/><stop stop-opacity="1" stop-color="rgb(50.862122%, 62.991333%, 89.936829%)" offset="0.167969"/><stop stop-opacity="1" stop-color="rgb(51.135254%, 62.780762%, 89.941406%)" offset="0.171875"/><stop stop-opacity="1" stop-color="rgb(51.40686%, 62.57019%, 89.944458%)" offset="0.175781"/><stop stop-opacity="1" stop-color="rgb(51.679993%, 62.359619%, 89.94751%)" offset="0.179688"/><stop stop-opacity="1" stop-color="rgb(51.951599%, 62.149048%, 89.950562%)" offset="0.183594"/><stop stop-opacity="1" stop-color="rgb(52.223206%, 61.938477%, 89.955139%)" offset="0.1875"/><stop stop-opacity="1" stop-color="rgb(52.494812%, 61.727905%, 89.958191%)" offset="0.191406"/><stop stop-opacity="1" stop-color="rgb(52.767944%, 61.517334%, 89.961243%)" offset="0.195312"/><stop stop-opacity="1" stop-color="rgb(53.039551%, 61.306763%, 89.964294%)" offset="0.199219"/><stop stop-opacity="1" stop-color="rgb(53.311157%, 61.096191%, 89.968872%)" offset="0.203125"/><stop stop-opacity="1" stop-color="rgb(53.582764%, 60.88562%, 89.971924%)" offset="0.207031"/><stop stop-opacity="1" stop-color="rgb(53.855896%, 60.675049%, 89.976501%)" offset="0.210938"/><stop stop-opacity="1" stop-color="rgb(54.127502%, 60.464478%, 89.979553%)" offset="0.214844"/><stop stop-opacity="1" stop-color="rgb(54.400635%, 60.253906%, 89.982605%)" offset="0.21875"/><stop stop-opacity="1" stop-color="rgb(54.672241%, 60.043335%, 89.985657%)" offset="0.222656"/><stop stop-opacity="1" stop-color="rgb(54.943848%, 59.832764%, 89.990234%)" offset="0.226563"/><stop stop-opacity="1" stop-color="rgb(55.215454%, 59.622192%, 89.993286%)" offset="0.230469"/><stop stop-opacity="1" stop-color="rgb(55.488586%, 59.411621%, 89.996338%)" offset="0.234375"/><stop stop-opacity="1" stop-color="rgb(55.760193%, 59.20105%, 89.99939%)" offset="0.238281"/><stop stop-opacity="1" stop-color="rgb(56.033325%, 58.990479%, 90.003967%)" offset="0.242188"/><stop stop-opacity="1" stop-color="rgb(56.304932%, 58.779907%, 90.007019%)" offset="0.246094"/><stop stop-opacity="1" stop-color="rgb(56.576538%, 58.569336%, 90.010071%)" offset="0.25"/><stop stop-opacity="1" stop-color="rgb(56.848145%, 58.358765%, 90.013123%)" offset="0.253906"/><stop stop-opacity="1" stop-color="rgb(57.121277%, 58.148193%, 90.0177%)" offset="0.257812"/><stop stop-opacity="1" stop-color="rgb(57.392883%, 57.937622%, 90.020752%)" offset="0.261719"/><stop stop-opacity="1" stop-color="rgb(57.666016%, 57.727051%, 90.023804%)" offset="0.265625"/><stop stop-opacity="1" stop-color="rgb(57.937622%, 57.516479%, 90.026855%)" offset="0.269531"/><stop stop-opacity="1" stop-color="rgb(58.209229%, 57.305908%, 90.031433%)" offset="0.273438"/><stop stop-opacity="1" stop-color="rgb(58.480835%, 57.095337%, 90.034485%)" offset="0.277344"/><stop stop-opacity="1" stop-color="rgb(58.753967%, 56.884766%, 90.037537%)" offset="0.28125"/><stop stop-opacity="1" stop-color="rgb(59.025574%, 56.674194%, 90.040588%)" offset="0.285156"/><stop stop-opacity="1" stop-color="rgb(59.29718%, 56.463623%, 90.045166%)" offset="0.289062"/><stop stop-opacity="1" stop-color="rgb(59.568787%, 56.253052%, 90.048218%)" offset="0.292969"/><stop stop-opacity="1" stop-color="rgb(59.841919%, 56.04248%, 90.05127%)" offset="0.296875"/><stop stop-opacity="1" stop-color="rgb(60.113525%, 55.831909%, 90.054321%)" offset="0.300781"/><stop stop-opacity="1" stop-color="rgb(60.386658%, 55.621338%, 90.058899%)" offset="0.304688"/><stop stop-opacity="1" stop-color="rgb(60.658264%, 55.410767%, 90.061951%)" offset="0.308594"/><stop stop-opacity="1" stop-color="rgb(60.929871%, 55.200195%, 90.066528%)" offset="0.3125"/><stop stop-opacity="1" stop-color="rgb(61.201477%, 54.989624%, 90.06958%)" offset="0.316406"/><stop stop-opacity="1" stop-color="rgb(61.474609%, 54.779053%, 90.072632%)" offset="0.320312"/><stop stop-opacity="1" stop-color="rgb(61.746216%, 54.568481%, 90.075684%)" offset="0.324219"/><stop stop-opacity="1" stop-color="rgb(62.019348%, 54.35791%, 90.080261%)" offset="0.328125"/><stop stop-opacity="1" stop-color="rgb(62.290955%, 54.147339%, 90.083313%)" offset="0.332031"/><stop stop-opacity="1" stop-color="rgb(62.562561%, 53.936768%, 90.086365%)" offset="0.335938"/><stop stop-opacity="1" stop-color="rgb(62.834167%, 53.726196%, 90.089417%)" offset="0.339844"/><stop stop-opacity="1" stop-color="rgb(63.1073%, 53.515625%, 90.093994%)" offset="0.34375"/><stop stop-opacity="1" stop-color="rgb(63.378906%, 53.305054%, 90.097046%)" offset="0.347656"/><stop stop-opacity="1" stop-color="rgb(63.652039%, 53.094482%, 90.100098%)" offset="0.351562"/><stop stop-opacity="1" stop-color="rgb(63.923645%, 52.883911%, 90.103149%)" offset="0.355469"/><stop stop-opacity="1" stop-color="rgb(64.195251%, 52.67334%, 90.107727%)" offset="0.359375"/><stop stop-opacity="1" stop-color="rgb(64.466858%, 52.462769%, 90.110779%)" offset="0.363281"/><stop stop-opacity="1" stop-color="rgb(64.73999%, 52.252197%, 90.113831%)" offset="0.367188"/><stop stop-opacity="1" stop-color="rgb(65.011597%, 52.041626%, 90.116882%)" offset="0.371094"/><stop stop-opacity="1" stop-color="rgb(65.283203%, 51.831055%, 90.12146%)" offset="0.375"/><stop stop-opacity="1" stop-color="rgb(65.55481%, 51.620483%, 90.124512%)" offset="0.378906"/><stop stop-opacity="1" stop-color="rgb(65.827942%, 51.409912%, 90.127563%)" offset="0.382812"/><stop stop-opacity="1" stop-color="rgb(66.099548%, 51.199341%, 90.130615%)" offset="0.386719"/><stop stop-opacity="1" stop-color="rgb(66.372681%, 50.98877%, 90.135193%)" offset="0.390625"/><stop stop-opacity="1" stop-color="rgb(66.644287%, 50.778198%, 90.138245%)" offset="0.394531"/><stop stop-opacity="1" stop-color="rgb(66.915894%, 50.567627%, 90.142822%)" offset="0.398438"/><stop stop-opacity="1" stop-color="rgb(67.1875%, 50.357056%, 90.145874%)" offset="0.402344"/><stop stop-opacity="1" stop-color="rgb(67.460632%, 50.146484%, 90.148926%)" offset="0.40625"/><stop stop-opacity="1" stop-color="rgb(67.732239%, 49.935913%, 90.151978%)" offset="0.410156"/><stop stop-opacity="1" stop-color="rgb(68.005371%, 49.725342%, 90.156555%)" offset="0.414062"/><stop stop-opacity="1" stop-color="rgb(68.276978%, 49.514771%, 90.159607%)" offset="0.417969"/><stop stop-opacity="1" stop-color="rgb(68.548584%, 49.304199%, 90.162659%)" offset="0.421875"/><stop stop-opacity="1" stop-color="rgb(68.82019%, 49.093628%, 90.16571%)" offset="0.425781"/><stop stop-opacity="1" stop-color="rgb(69.093323%, 48.883057%, 90.170288%)" offset="0.429688"/><stop stop-opacity="1" stop-color="rgb(69.364929%, 48.672485%, 90.17334%)" offset="0.433594"/><stop stop-opacity="1" stop-color="rgb(69.638062%, 48.461914%, 90.176392%)" offset="0.4375"/><stop stop-opacity="1" stop-color="rgb(69.909668%, 48.251343%, 90.179443%)" offset="0.441406"/><stop stop-opacity="1" stop-color="rgb(70.181274%, 48.040771%, 90.184021%)" offset="0.445312"/><stop stop-opacity="1" stop-color="rgb(70.452881%, 47.8302%, 90.187073%)" offset="0.449219"/><stop stop-opacity="1" stop-color="rgb(70.726013%, 47.619629%, 90.190125%)" offset="0.453125"/><stop stop-opacity="1" stop-color="rgb(70.99762%, 47.409058%, 90.193176%)" offset="0.457031"/><stop stop-opacity="1" stop-color="rgb(71.270752%, 47.200012%, 90.197754%)" offset="0.460937"/><stop stop-opacity="1" stop-color="rgb(71.458435%, 47.067261%, 89.823914%)" offset="0.464844"/><stop stop-opacity="1" stop-color="rgb(71.646118%, 46.936035%, 89.451599%)" offset="0.46875"/><stop stop-opacity="1" stop-color="rgb(71.806335%, 46.829224%, 88.961792%)" offset="0.472656"/><stop stop-opacity="1" stop-color="rgb(71.968079%, 46.722412%, 88.471985%)" offset="0.476563"/><stop stop-opacity="1" stop-color="rgb(72.129822%, 46.614075%, 87.982178%)" offset="0.480469"/><stop stop-opacity="1" stop-color="rgb(72.291565%, 46.507263%, 87.492371%)" offset="0.484375"/><stop stop-opacity="1" stop-color="rgb(72.451782%, 46.400452%, 87.001038%)" offset="0.488281"/><stop stop-opacity="1" stop-color="rgb(72.613525%, 46.29364%, 86.51123%)" offset="0.492188"/><stop stop-opacity="1" stop-color="rgb(72.775269%, 46.186829%, 86.021423%)" offset="0.496094"/><stop stop-opacity="1" stop-color="rgb(72.937012%, 46.080017%, 85.531616%)" offset="0.5"/><stop stop-opacity="1" stop-color="rgb(73.098755%, 45.973206%, 85.041809%)" offset="0.503906"/><stop stop-opacity="1" stop-color="rgb(73.260498%, 45.866394%, 84.552002%)" offset="0.507812"/><stop stop-opacity="1" stop-color="rgb(73.420715%, 45.758057%, 84.062195%)" offset="0.511719"/><stop stop-opacity="1" stop-color="rgb(73.582458%, 45.651245%, 83.572388%)" offset="0.515625"/><stop stop-opacity="1" stop-color="rgb(73.744202%, 45.544434%, 83.081055%)" offset="0.519531"/><stop stop-opacity="1" stop-color="rgb(73.905945%, 45.437622%, 82.591248%)" offset="0.523437"/><stop stop-opacity="1" stop-color="rgb(74.067688%, 45.330811%, 82.10144%)" offset="0.527344"/><stop stop-opacity="1" stop-color="rgb(74.229431%, 45.223999%, 81.611633%)" offset="0.53125"/><stop stop-opacity="1" stop-color="rgb(74.389648%, 45.117188%, 81.121826%)" offset="0.535156"/><stop stop-opacity="1" stop-color="rgb(74.551392%, 45.010376%, 80.632019%)" offset="0.539063"/><stop stop-opacity="1" stop-color="rgb(74.713135%, 44.902039%, 80.140686%)" offset="0.542969"/><stop stop-opacity="1" stop-color="rgb(74.874878%, 44.795227%, 79.650879%)" offset="0.546875"/><stop stop-opacity="1" stop-color="rgb(75.036621%, 44.688416%, 79.161072%)" offset="0.550781"/><stop stop-opacity="1" stop-color="rgb(75.198364%, 44.581604%, 78.671265%)" offset="0.554688"/><stop stop-opacity="1" stop-color="rgb(75.358582%, 44.474792%, 78.181458%)" offset="0.558594"/><stop stop-opacity="1" stop-color="rgb(75.520325%, 44.367981%, 77.69165%)" offset="0.5625"/><stop stop-opacity="1" stop-color="rgb(75.682068%, 44.261169%, 77.201843%)" offset="0.566406"/><stop stop-opacity="1" stop-color="rgb(75.843811%, 44.154358%, 76.712036%)" offset="0.570312"/><stop stop-opacity="1" stop-color="rgb(76.004028%, 44.046021%, 76.220703%)" offset="0.574219"/><stop stop-opacity="1" stop-color="rgb(76.165771%, 43.939209%, 75.730896%)" offset="0.578125"/><stop stop-opacity="1" stop-color="rgb(76.327515%, 43.832397%, 75.241089%)" offset="0.582031"/><stop stop-opacity="1" stop-color="rgb(76.489258%, 43.725586%, 74.751282%)" offset="0.585937"/><stop stop-opacity="1" stop-color="rgb(76.651001%, 43.618774%, 74.261475%)" offset="0.589844"/><stop stop-opacity="1" stop-color="rgb(76.812744%, 43.511963%, 73.771667%)" offset="0.59375"/><stop stop-opacity="1" stop-color="rgb(76.972961%, 43.403625%, 73.28186%)" offset="0.597656"/><stop stop-opacity="1" stop-color="rgb(77.134705%, 43.296814%, 72.792053%)" offset="0.601562"/><stop stop-opacity="1" stop-color="rgb(77.296448%, 43.190002%, 72.30072%)" offset="0.605469"/><stop stop-opacity="1" stop-color="rgb(77.458191%, 43.083191%, 71.810913%)" offset="0.609375"/><stop stop-opacity="1" stop-color="rgb(77.619934%, 42.976379%, 71.321106%)" offset="0.613281"/><stop stop-opacity="1" stop-color="rgb(77.781677%, 42.869568%, 70.831299%)" offset="0.617188"/><stop stop-opacity="1" stop-color="rgb(77.941895%, 42.762756%, 70.341492%)" offset="0.621094"/><stop stop-opacity="1" stop-color="rgb(78.103638%, 42.655945%, 69.851685%)" offset="0.625"/><stop stop-opacity="1" stop-color="rgb(78.265381%, 42.547607%, 69.360352%)" offset="0.628906"/><stop stop-opacity="1" stop-color="rgb(78.427124%, 42.440796%, 68.870544%)" offset="0.632812"/><stop stop-opacity="1" stop-color="rgb(78.587341%, 42.333984%, 68.380737%)" offset="0.636719"/><stop stop-opacity="1" stop-color="rgb(78.749084%, 42.227173%, 67.89093%)" offset="0.640625"/><stop stop-opacity="1" stop-color="rgb(78.910828%, 42.120361%, 67.401123%)" offset="0.644531"/><stop stop-opacity="1" stop-color="rgb(79.072571%, 42.01355%, 66.911316%)" offset="0.648437"/><stop stop-opacity="1" stop-color="rgb(79.234314%, 41.906738%, 66.421509%)" offset="0.652344"/><stop stop-opacity="1" stop-color="rgb(79.396057%, 41.799927%, 65.931702%)" offset="0.65625"/><stop stop-opacity="1" stop-color="rgb(79.556274%, 41.691589%, 65.440369%)" offset="0.660156"/><stop stop-opacity="1" stop-color="rgb(79.718018%, 41.584778%, 64.950562%)" offset="0.664062"/><stop stop-opacity="1" stop-color="rgb(79.879761%, 41.477966%, 64.460754%)" offset="0.667969"/><stop stop-opacity="1" stop-color="rgb(80.041504%, 41.371155%, 63.970947%)" offset="0.671875"/><stop stop-opacity="1" stop-color="rgb(80.203247%, 41.264343%, 63.48114%)" offset="0.675781"/><stop stop-opacity="1" stop-color="rgb(80.36499%, 41.157532%, 62.991333%)" offset="0.679688"/><stop stop-opacity="1" stop-color="rgb(80.525208%, 41.05072%, 62.501526%)" offset="0.683594"/><stop stop-opacity="1" stop-color="rgb(80.686951%, 40.943909%, 62.011719%)" offset="0.6875"/><stop stop-opacity="1" stop-color="rgb(80.848694%, 40.835571%, 61.520386%)" offset="0.691406"/><stop stop-opacity="1" stop-color="rgb(81.010437%, 40.72876%, 61.030579%)" offset="0.695312"/><stop stop-opacity="1" stop-color="rgb(81.17218%, 40.621948%, 60.540771%)" offset="0.699219"/><stop stop-opacity="1" stop-color="rgb(81.333923%, 40.515137%, 60.050964%)" offset="0.703125"/><stop stop-opacity="1" stop-color="rgb(81.494141%, 40.408325%, 59.561157%)" offset="0.707031"/><stop stop-opacity="1" stop-color="rgb(81.655884%, 40.301514%, 59.07135%)" offset="0.710938"/><stop stop-opacity="1" stop-color="rgb(81.817627%, 40.193176%, 58.580017%)" offset="0.714844"/><stop stop-opacity="1" stop-color="rgb(81.97937%, 40.086365%, 58.09021%)" offset="0.71875"/><stop stop-opacity="1" stop-color="rgb(82.139587%, 39.979553%, 57.600403%)" offset="0.722656"/><stop stop-opacity="1" stop-color="rgb(82.301331%, 39.872742%, 57.110596%)" offset="0.726562"/><stop stop-opacity="1" stop-color="rgb(82.463074%, 39.76593%, 56.620789%)" offset="0.730469"/><stop stop-opacity="1" stop-color="rgb(82.624817%, 39.659119%, 56.130981%)" offset="0.734375"/><stop stop-opacity="1" stop-color="rgb(82.78656%, 39.552307%, 55.641174%)" offset="0.738281"/><stop stop-opacity="1" stop-color="rgb(82.948303%, 39.445496%, 55.151367%)" offset="0.742187"/><stop stop-opacity="1" stop-color="rgb(83.108521%, 39.337158%, 54.660034%)" offset="0.746094"/><stop stop-opacity="1" stop-color="rgb(83.270264%, 39.230347%, 54.170227%)" offset="0.75"/><stop stop-opacity="1" stop-color="rgb(83.432007%, 39.123535%, 53.68042%)" offset="0.753906"/><stop stop-opacity="1" stop-color="rgb(83.59375%, 39.016724%, 53.190613%)" offset="0.757813"/><stop stop-opacity="1" stop-color="rgb(83.755493%, 38.909912%, 52.700806%)" offset="0.761719"/><stop stop-opacity="1" stop-color="rgb(83.917236%, 38.803101%, 52.210999%)" offset="0.765625"/><stop stop-opacity="1" stop-color="rgb(84.077454%, 38.696289%, 51.721191%)" offset="0.769531"/><stop stop-opacity="1" stop-color="rgb(84.239197%, 38.589478%, 51.231384%)" offset="0.773438"/><stop stop-opacity="1" stop-color="rgb(84.40094%, 38.48114%, 50.740051%)" offset="0.777344"/><stop stop-opacity="1" stop-color="rgb(84.562683%, 38.374329%, 50.250244%)" offset="0.78125"/><stop stop-opacity="1" stop-color="rgb(84.7229%, 38.267517%, 49.760437%)" offset="0.785156"/><stop stop-opacity="1" stop-color="rgb(84.884644%, 38.160706%, 49.27063%)" offset="0.789062"/><stop stop-opacity="1" stop-color="rgb(85.046387%, 38.053894%, 48.780823%)" offset="0.792969"/><stop stop-opacity="1" stop-color="rgb(85.20813%, 37.947083%, 48.291016%)" offset="0.796875"/><stop stop-opacity="1" stop-color="rgb(85.369873%, 37.840271%, 47.799683%)" offset="0.800781"/><stop stop-opacity="1" stop-color="rgb(85.531616%, 37.733459%, 47.309875%)" offset="0.804688"/><stop stop-opacity="1" stop-color="rgb(85.691833%, 37.625122%, 46.820068%)" offset="0.808594"/><stop stop-opacity="1" stop-color="rgb(85.853577%, 37.518311%, 46.330261%)" offset="0.8125"/><stop stop-opacity="1" stop-color="rgb(86.01532%, 37.411499%, 45.840454%)" offset="0.816406"/><stop stop-opacity="1" stop-color="rgb(86.177063%, 37.304688%, 45.350647%)" offset="0.820312"/><stop stop-opacity="1" stop-color="rgb(86.338806%, 37.197876%, 44.86084%)" offset="0.824219"/><stop stop-opacity="1" stop-color="rgb(86.500549%, 37.091064%, 44.371033%)" offset="0.828125"/><stop stop-opacity="1" stop-color="rgb(86.660767%, 36.982727%, 43.8797%)" offset="0.832031"/><stop stop-opacity="1" stop-color="rgb(86.82251%, 36.875916%, 43.389893%)" offset="0.835938"/><stop stop-opacity="1" stop-color="rgb(86.984253%, 36.769104%, 42.900085%)" offset="0.839844"/><stop stop-opacity="1" stop-color="rgb(87.145996%, 36.662292%, 42.410278%)" offset="0.84375"/><stop stop-opacity="1" stop-color="rgb(87.306213%, 36.555481%, 41.920471%)" offset="0.847656"/><stop stop-opacity="1" stop-color="rgb(87.467957%, 36.448669%, 41.430664%)" offset="0.851563"/><stop stop-opacity="1" stop-color="rgb(87.6297%, 36.341858%, 40.939331%)" offset="0.855469"/><stop stop-opacity="1" stop-color="rgb(87.791443%, 36.235046%, 40.449524%)" offset="0.859375"/><stop stop-opacity="1" stop-color="rgb(87.953186%, 36.126709%, 39.959717%)" offset="0.863281"/><stop stop-opacity="1" stop-color="rgb(88.114929%, 36.019897%, 39.46991%)" offset="0.867188"/><stop stop-opacity="1" stop-color="rgb(88.275146%, 35.913086%, 38.980103%)" offset="0.871094"/><stop stop-opacity="1" stop-color="rgb(88.43689%, 35.806274%, 38.490295%)" offset="0.875"/><stop stop-opacity="1" stop-color="rgb(88.517761%, 35.752869%, 38.244629%)" offset="0.878906"/><stop stop-opacity="1" stop-color="rgb(88.598633%, 35.699463%, 37.998962%)" offset="0.882812"/><stop stop-opacity="1" stop-color="rgb(88.598633%, 35.699463%, 37.998962%)" offset="0.890625"/><stop stop-opacity="1" stop-color="rgb(88.598633%, 35.699463%, 37.998962%)" offset="0.90625"/><stop stop-opacity="1" stop-color="rgb(88.598633%, 35.699463%, 37.998962%)" offset="0.9375"/><stop stop-opacity="1" stop-color="rgb(88.598633%, 35.699463%, 37.998962%)" offset="1"/></linearGradient></defs><path fill="#737373" d="M 187.5 0 C 83.652344 0 0 83.652344 0 187.5 C 0 291.347656 83.652344 375 187.5 375 C 290.382812 375 375 291.347656 375 187.5 C 375 83.652344 290.382812 0 187.5 0 Z M 187.5 346.152344 C 100 346.152344 28.847656 275 28.847656 187.5 C 28.847656 100 100 28.847656 187.5 28.847656 C 275 28.847656 346.152344 100 346.152344 187.5 C 346.152344 275 275 346.152344 187.5 346.152344 Z M 187.5 346.152344 " fill-opacity="1" fill-rule="nonzero"/><path fill="#545454" d="M 187.5 28.847656 C 100 28.847656 28.847656 100 28.847656 187.5 C 28.847656 275 100 346.152344 187.5 346.152344 C 275 346.152344 346.152344 275 346.152344 187.5 C 346.152344 100 275 28.847656 187.5 28.847656 Z M 187.5 28.847656 " fill-opacity="1" fill-rule="nonzero"/><g clip-path="url(#id1)"><g clip-path="url(#id2)"><path fill="url(#id3)" d="M 104.496094 63.902344 L 104.496094 289.710938 L 292.671875 289.710938 L 292.671875 63.902344 Z M 104.496094 63.902344 " fill-rule="nonzero"/></g></g></svg>